<?xml version="1.0" encoding="UTF-8"?>
<svg id="Layer_1" data-name="Layer 1" xmlns="http://www.w3.org/2000/svg" viewBox="0 0 146.4 120.02">
  <polygon points="73.08 116 41.86 52.8 2.13 31.48 73.08 116" fill="#e88523"/>
  <polygon points="28.8 10.16 48.4 23.11 41.86 52.8 2.13 31.48 28.8 10.16" fill="#ffc78d"/>
  <polygon points="73.08 116 104.53 52.87 144.27 31.55 73.08 116" fill="#e88523"/>
  <polygon points="117.6 10.23 99.21 23.11 104.53 52.87 144.27 31.55 117.6 10.23" fill="#ffc78d"/>
  <polygon points="73.2 116.69 104.53 52.87 74.17 52.87 74.17 52.8 41.86 52.8 73.2 116.69 73.2 116.69 73.2 116.69 73.2 116.69 73.2 116.69" fill="#fbcda1"/>
  <polygon points="104.53 52.87 99.21 23.11 48.4 23.11 41.86 52.8 104.53 52.87" fill="#ffc78d"/>
  <polygon points="98.72 1.59 47.67 1.52 28.8 9.84 47.67 23.04 98.72 23.11 117.6 9.91 98.72 1.59" fill="#e88523"/>
  <path d="M146.4,31.32l-25.75-21.71L99.02,.07l-51.64-.07L26.13,9.81,0,31.25,73.2,120.02,146.4,31.32Zm-8.31,5.26l-57.3,67.96,24.8-50.53,16.71-8.96,15.78-8.47Zm3.46-5.28l-15.75,8.45-20.21,10.84-4.47-25-.32-1.77,16.73-11.71,24.01,19.19Zm-38.77,20.05l-29-.03-30.09-.03,3.83-17.39,2.04-9.26h48.46l4.77,26.71ZM47.96,3.05l50.47,.07,16.11,7.1-16.26,11.37-49.57-.07-10.87-7.18-5.99-4.19L47.96,3.05ZM4.84,31.23L28.88,12.01l7.4,4.89,10.4,7.27-2.76,12.55-3.04,13.83L4.88,31.25l-.04-.02Zm3.42,5.25l32.33,17.49,14.01,28.12,11.31,23.06L8.26,36.48Zm35.99,17.84l29.46,.03,28.42,.03-29.05,58.3-28.83-58.37Z"/>
</svg>