<svg xmlns="http://www.w3.org/2000/svg" xmlns:xlink="http://www.w3.org/1999/xlink" width="219" height="219" viewBox="0 0 219 219">
  <defs>
    <clipPath id="clip-path">
      <rect id="Rectangle_10" data-name="Rectangle 10" width="219" height="219" transform="translate(82 37)" fill="#feb845" stroke="#707070" stroke-width="1"/>
    </clipPath>
  </defs>
  <g id="Mask_Group_4" data-name="Mask Group 4" transform="translate(-82 -37)" clip-path="url(#clip-path)">
    <path id="open-source-icon" d="M5.538,109.148c.3-25.655,8.452-48.465,25.3-67.872,16.926-19.5,38.353-31,63.93-34.711a96.089,96.089,0,0,1,16.433-1c24.7.692,46.662,8.774,65.562,24.737a101.872,101.872,0,0,1,33.419,53,99.957,99.957,0,0,1,3.2,22.169,105.129,105.129,0,0,1-11.942,52.767,101.9,101.9,0,0,1-16.276,22.967,89.385,89.385,0,0,1-26.443,19.675,68.842,68.842,0,0,1-12.32,4.56c-2.665.705-4.071-.009-5.077-2.6l-4.954-12.724s-11.845-30.439-17.815-45.792c-.987-2.536-.24-4.205,2.324-5.215a34.743,34.743,0,0,0,9.079-5.063,24.184,24.184,0,0,0,8.17-11.9,36.566,36.566,0,0,0,1.13-19.3A30.665,30.665,0,0,0,80.81,98.912a29.181,29.181,0,0,0-1.715,12.408,39.348,39.348,0,0,0,3.048,13.528A25.542,25.542,0,0,0,97.8,139.368c3.149,1.061,4.085,3.034,2.785,6.183-6.16,14.944-12.2,29.943-18.282,44.919q-2.538,6.259-5.1,12.509c-.954,2.315-2.4,3.016-4.818,2.356A76.006,76.006,0,0,1,44.472,190.7c-16.23-13.122-27.347-29.777-33.848-49.548a99.313,99.313,0,0,1-4.975-28.4c-.018-.613-.088-1.226-.106-1.84-.018-.586,0-1.171,0-1.752Zm201.158-1c-.171-2.462-.281-6.151-.71-9.8-2.707-22.962-12.435-42.48-28.988-58.6A95.142,95.142,0,0,0,150.13,21.367a97.255,97.255,0,0,0-46.837-8.774A96.583,96.583,0,0,0,12.56,114.658,93.735,93.735,0,0,0,18.4,142.711c6.8,18.167,17.687,33.313,33.337,44.91A69.793,69.793,0,0,0,70.652,197.64c1.1.378,1.194.337,1.6-.655Q82.6,171.512,92.96,146.049c.314-.77.166-1.125-.581-1.475a32.707,32.707,0,0,1-16.567-17.12A45.92,45.92,0,0,1,72.3,112.325a36.7,36.7,0,0,1,1.535-14.2,37.518,37.518,0,0,1,72.137,3.232,42.334,42.334,0,0,1,.4,15.428c-1.632,12.219-7.742,21.293-18.835,26.877-1.628.821-1.7.447-.922,2.448q9.918,25.5,19.845,51c.392,1.005.521,1.111,1.568.7,2.72-1.065,5.487-2.047,8.111-3.311a81.132,81.132,0,0,0,26.425-20.638c15.9-18.536,23.737-40.133,24.138-65.714Z" transform="translate(82.011 40.862)" fill="#feb845" stroke="#707070" stroke-miterlimit="10" stroke-width="11.066"/>
  </g>
</svg>
