<svg xmlns="http://www.w3.org/2000/svg" xmlns:xlink="http://www.w3.org/1999/xlink" width="278" height="278" viewBox="0 0 278 278">
  <defs>
    <clipPath id="clip-path">
      <rect id="Rectangle_7" data-name="Rectangle 7" width="278" height="278" transform="translate(1249 1148)" fill="#fff" stroke="#707070" stroke-width="1"/>
    </clipPath>
  </defs>
  <g id="Mask_Group_1" data-name="Mask Group 1" transform="translate(-1249 -1148)" clip-path="url(#clip-path)">
    <g id="no-cloud-icon" transform="translate(1249 1180.181)">
      <path id="Path_1" data-name="Path 1" d="M75.157,12.449C85.767,5.752,96.525,1.728,108.169.5c41.577-4.386,76.922,20.246,87.333,60.774.613,2.4,1.861,2.99,4.031,3.293,27.925,3.876,47.7,27.718,45.978,55.835-.96,15.675-7.96,28.456-20.194,38.328a20.226,20.226,0,0,1-1.89,1.24c-5.073-5.087-10-10.034-15.136-15.173.539-.4,1.263-.967,2.023-1.5,11.7-8.174,16.665-22.047,12.663-35.367a31.693,31.693,0,0,0-30.258-22.756c-3.566-.066-7.14,0-10.706-.022-6.424-.037-5.612.554-5.612-5.427a57.228,57.228,0,0,0-11.2-34.489A58.085,58.085,0,0,0,94.059,26.448c-2.629,1.174-4.046.864-5.929-1.144-4.039-4.29-8.358-8.314-12.973-12.855Z" transform="translate(9.783 0.001)" fill="#707070"/>
      <path id="Path_2" data-name="Path 2" d="M45.24.836l-13.025,13c9.237,9.274,18.644,18.725,28.331,28.449-1.809.288-3.219.554-4.644.731A63.822,63.822,0,0,0,63.81,170.172q60.527.133,121.047-.03a8.082,8.082,0,0,1,6.438,2.651c6.04,6.283,12.272,12.375,18.016,18.134,4.644-4.622,9.038-9.008,13.364-13.32Q134.105,89.347,45.24.836ZM162.993,148.811c-32.975.007-65.95.066-98.918-.015-24.787-.059-43.718-20.039-42.677-44.826C22.307,82.4,40.478,64.4,62.052,63.811q8.849-.244,17.713.015A6.7,6.7,0,0,1,83.923,65.5q40.924,40.768,81.692,81.692c.258.258.443.576,1.093,1.44-1.6.081-2.658.185-3.714.185Z" transform="translate(0.006 0.11)" fill="#707070"/>
    </g>
  </g>
</svg>
