<svg xmlns="http://www.w3.org/2000/svg" xmlns:xlink="http://www.w3.org/1999/xlink" width="541.234" height="223.574" viewBox="0 0 541.234 223.574">
  <defs>
    <clipPath id="clip-path">
      <rect id="Rectangle_18" data-name="Rectangle 18" width="541.234" height="223.574" transform="translate(0 0)" fill="#fff" stroke="#707070" stroke-width="1"/>
    </clipPath>
  </defs>
  <g id="Mask_Group_6" data-name="Mask Group 6" clip-path="url(#clip-path)">
    <g id="typo-logo-large" transform="translate(34.755 0)">
      <g id="Group_9" data-name="Group 9" transform="translate(0 7.337)" opacity="0.75">
        <g id="Group_8" data-name="Group 8">
          <path id="Path_16" data-name="Path 16" d="M200.347,56.193c-.024,6.691-1.175,13.455-9.378,13.6-8.754.144-13.814-5.972-14.15-14.174-.288-7.243,4.1-13.239,11.776-13.551C197.589,41.683,200.4,48.207,200.347,56.193Z" transform="translate(-12.108 -10.263)"/>
          <path id="Path_17" data-name="Path 17" d="M452.112,135.066a413.21,413.21,0,0,1-16.213,54.3c-2.111,5.636-2.254,16.525-10.145,14.7-7-1.631-3.789-11.8-3.406-18.107.839-13.743,2.518-27.461,4.2-41.156,1.511-12.184-3.43-20.938-14.222-25.974-7.987-3.717-11.008-8.9-9.929-17.652.791-6.4,2.278-13.79-4.293-18.563a7.558,7.558,0,0,0-9.042.192c-6.907,5.516-5.42,13.383-5.156,20.818a2.679,2.679,0,0,0,.24,1.151c6.835,13.551,2.854,27.005-.815,40.22-5.468,19.714-10.433,39.645-20.722,57.68-4.557,7.987-9.162,8.514-15.4,1.343-4.509-5.2-3.693-9.33-.672-14.8,10.888-19.81,20.17-40.2,20.818-63.412.288-10.6-4.317-17.6-14.486-20.1-11.416-2.806-15.3,5.636-18.731,13.91a59.01,59.01,0,0,0-2.9,10.193,539.953,539.953,0,0,1-16.956,60.174c-1.679,4.869-2.47,10.721-8.082,13.982-4.821-9.929-3.765-19.81-2.686-29.548C309.1,123.53,314.472,72.613,325.7,22.535c1.415-6.308,1.895-13.023-7.411-14.39-9.09-1.319-11.224,3.454-12.16,11.512-3.118,26.909-7.027,53.723-10.673,80.9-16.836-7.747-22.209-5.924-30.1,9.737-6.428,12.783-9.665,26.6-12.783,40.436-3.909,17.292-8.3,34.464-16.573,50.341-2.494,4.773-5.108,9.354-11.68,4.221-11.32-8.85-16.836-33.481-9.306-45.5,21.705-34.68,30.867-73.054,34.536-113.106.863-9.545-.144-19.043-4.725-27.629-3.574-6.691-9.545-10.769-17.46-10.193S217.458,15.844,216,22.152c-8.682,37.582-18.132,74.948-18.875,113.921-.408,21.873-8.994,42.211-15.9,62.741-.767,2.254-1.727,4.773-4.533,4.7-2.806-.1-3.885-2.758-4.341-4.989a55.671,55.671,0,0,1-.767-9.4c-.7-20.29,4.1-39.908,7.627-59.671.767-4.317,2.83-8.658-2.039-11.656-4.965-3.046-9.953-2.638-14.006,1.775-1.775,1.919-3.358,2.854-6.092,2.446-37.534-5.612-74.229,1.463-111,7.483-6.452,1.055-12.423,2.782-15.685,9.21-1.079,2.159-2.494,4.581-1.223,6.691,1.559,2.566,4.341.767,6.428.288,22.952-5.348,46.336-5.852,69.744-6.691,9.186-.336,11.992,3.382,11.464,11.824-1.391,22.928-16.429,36-34.464,46.336-32.594,18.707-60.438,2.9-60.918-34.344-.576-44.993,15.373-84.877,39.549-121.884,8.874-13.6,16.956-16.069,28.876-11.248,17,6.883,20.962,13.527,18.587,30.771-1.415,10.169-2.518,20.362.6,30.483,1.751,5.732,4.653,10.169,11.32,10.313,7.243.168,9.449-5.324,10.5-10.793,8.13-42.451,3.214-61.254-37.846-74.4-2.638-.839-5.252-1.775-7.891-2.59-17.1-5.252-31.083-2.063-41.347,12.136C13.887,66.761-2.47,112.713.312,163.894c1.967,36.119,24.727,55.881,60.8,55.5,34.608-.36,66.914-28.66,72.526-63.436,1.559-9.761,1.055-19.858,16.093-21.057,12.663-1.031,11.7-2.83,10.984,10.313-1.031,19.211-5.228,38.421-.959,57.728,1.823,8.2,5.66,15.182,14.966,16.213,9.09.983,13.407-5.492,16.621-12.639,2.422-5.372,4.533-10.889,7.651-18.491,3.765,16.429,9.881,28.444,22.568,36.143h11.92c6.859-4.053,14.078-7.795,14.726-17.292,4.245,7.843,8.178,15.853,19.451,16.237,11.2.384,15.709-8.8,22.281-14.846,14.438,16.309,18.539,15.781,36.767-4.317,5.252,8.346,9.521,17.628,21.057,18.971,14.2,1.655,24.271-3.765,32.522-18.755,9.641-17.532,13.287-37.054,18.635-56,1.079-3.813.863-8.37,4.629-11.416,3.43,4.245,1.655,8.2,1.511,12.04-.648,16.932-2.039,33.889,1.271,50.7,2.662,13.479,9.665,21.417,19.57,22.161,12.447.935,15.877-9.114,19.834-17.364a212.45,212.45,0,0,0,19.019-62.957v-9.473c-7.363-7.339-10.337-6.811-12.615,3.286Zm-220.1-98.308c5.588,19.858-2.734,60.318-20.026,95.07,3.669-34.128,10.7-64.515,20.026-95.07Zm38.206,169.011c-.336.5-1.367.528-3.094,1.151-4.653-15.517-3.286-30.867-.144-46.12,2.83-13.79,5.588-27.7,12.711-40.172,1.559-2.734,3.741-5.636,7.339-4.941,3.622.7,4.965,4.389,4.917,7.339-.528,29.284-4.821,57.68-21.729,82.743Zm83.007-83.726c1.487,16.045-3.046,31.011-9.354,45.617C342.532,151.662,347.017,136.769,353.229,122.043Z" transform="translate(-0.007 -7.927)"/>
        </g>
      </g>
      <g id="Group_12" data-name="Group 12" transform="translate(4.571 0)">
        <g id="Group_10" data-name="Group 10" transform="translate(164.755 31.788)">
          <path id="Path_18" data-name="Path 18" d="M206.6,49.6c-.024,6.691-1.175,13.455-9.378,13.6-8.754.144-13.814-5.972-14.15-14.174-.288-7.243,4.1-13.239,11.776-13.551,8.994-.384,11.8,6.14,11.752,14.126Z" transform="translate(-181.861 -34.263)" fill="#feba48"/>
          <path id="Path_19" data-name="Path 19" d="M196.826,64.312c-8.754,0-14.654-5.972-15.038-15.325-.336-8.37,4.965-14.462,12.927-14.8,3.789-.144,6.835.839,9.018,2.95,2.662,2.566,4.005,6.739,3.981,12.4,0,4.365-.048,14.606-10.553,14.8h-.336Zm-1.343-27.749h-.672c-6.547.264-10.912,5.324-10.625,12.3.336,8.034,5.348,13.191,12.927,13.023,5.78-.1,8.154-3.693,8.2-12.4h0c.024-4.965-1.055-8.562-3.238-10.649A9.182,9.182,0,0,0,195.483,36.563Z" transform="translate(-181.773 -34.175)" fill="#333"/>
        </g>
        <g id="Group_11" data-name="Group 11">
          <path id="Path_20" data-name="Path 20" d="M458.367,128.449a413.211,413.211,0,0,1-16.213,54.3c-2.111,5.636-2.254,16.525-10.145,14.7-7-1.631-3.789-11.8-3.406-18.108.839-13.743,2.518-27.461,4.2-41.156,1.511-12.184-3.43-20.938-14.222-25.974-7.987-3.717-11.008-8.9-9.929-17.652.791-6.4,2.278-13.79-4.293-18.563a7.558,7.558,0,0,0-9.042.192c-6.907,5.516-5.42,13.383-5.156,20.818a2.679,2.679,0,0,0,.24,1.151c6.835,13.551,2.854,27.005-.815,40.22-5.468,19.714-10.433,39.645-20.722,57.68-4.557,7.986-9.162,8.514-15.4,1.343-4.509-5.2-3.693-9.33-.672-14.8,10.888-19.81,20.17-40.2,20.818-63.412.288-10.6-4.317-17.6-14.486-20.1-11.416-2.806-15.3,5.636-18.731,13.91a59.01,59.01,0,0,0-2.9,10.193,539.967,539.967,0,0,1-16.956,60.174c-1.679,4.869-2.47,10.721-8.082,13.982-4.821-9.929-3.765-19.81-2.686-29.548,5.588-50.893,10.96-101.81,22.185-151.887,1.415-6.308,1.895-13.023-7.411-14.39C315.45.21,313.315,4.982,312.38,13.041c-3.118,26.909-7.027,53.723-10.673,80.9-16.836-7.747-22.209-5.924-30.1,9.737-6.428,12.783-9.665,26.6-12.783,40.436-3.909,17.292-8.3,34.464-16.573,50.341-2.494,4.773-5.108,9.354-11.68,4.221-11.32-8.85-16.836-33.481-9.306-45.5C242.972,118.5,252.134,80.122,255.8,40.07c.863-9.545-.144-19.043-4.725-27.629C247.5,5.75,241.533,1.673,233.618,2.248s-9.905,6.979-11.368,13.287c-8.682,37.582-18.132,74.948-18.875,113.921-.408,21.873-8.994,42.211-15.9,62.741-.767,2.254-1.727,4.773-4.533,4.7-2.806-.1-3.885-2.758-4.341-4.989a55.669,55.669,0,0,1-.767-9.4c-.7-20.29,4.1-39.908,7.627-59.671.767-4.317,2.83-8.658-2.039-11.656-4.965-3.046-9.953-2.638-14.006,1.775-1.775,1.919-3.358,2.854-6.092,2.446-37.534-5.612-74.229,1.463-111,7.483-6.452,1.055-12.423,2.782-15.685,9.21-1.079,2.158-2.494,4.581-1.223,6.691,1.559,2.566,4.341.767,6.428.288,22.952-5.348,46.336-5.852,69.744-6.691,9.186-.336,11.992,3.382,11.464,11.824-1.391,22.928-16.429,36-34.464,46.336C56,209.249,28.152,193.444,27.673,156.2,27.1,111.205,43.046,71.321,67.221,34.314,76.1,20.715,84.178,18.245,96.1,23.066c17,6.883,20.962,13.527,18.587,30.771-1.415,10.169-2.518,20.362.6,30.483,1.751,5.732,4.653,10.169,11.32,10.313,7.243.168,9.449-5.324,10.5-10.793,8.13-42.451,3.214-61.254-37.846-74.4-2.638-.839-5.252-1.775-7.891-2.59C74.272,1.6,60.29,4.79,50.025,18.989,20.142,60.144,3.785,106.1,6.543,157.277c1.967,36.119,24.727,55.881,60.8,55.5,34.608-.36,66.914-28.66,72.526-63.436,1.559-9.761,1.055-19.858,16.093-21.057,12.663-1.031,11.7-2.83,10.984,10.313-1.031,19.211-5.228,38.421-.959,57.728,1.823,8.2,5.66,15.182,14.966,16.213,9.09.983,13.407-5.492,16.621-12.639,2.422-5.372,4.533-10.888,7.651-18.491,3.765,16.429,9.881,28.444,22.568,36.143h11.92c6.859-4.053,14.078-7.795,14.726-17.292,4.245,7.843,8.178,15.853,19.451,16.237,11.2.384,15.709-8.8,22.281-14.846,14.438,16.309,18.539,15.781,36.767-4.317,5.252,8.346,9.521,17.628,21.057,18.971,14.2,1.655,24.271-3.765,32.522-18.755,9.641-17.532,13.287-37.054,18.635-56,1.079-3.813.863-8.37,4.629-11.416,3.43,4.245,1.655,8.2,1.511,12.04-.648,16.932-2.039,33.889,1.271,50.7,2.662,13.479,9.665,21.417,19.571,22.161,12.447.935,15.877-9.114,19.834-17.364a212.452,212.452,0,0,0,19.019-62.957v-9.473c-7.363-7.339-10.337-6.811-12.615,3.286Zm-220.1-98.308c5.588,19.858-2.734,60.318-20.026,95.07C221.914,91.083,228.942,60.7,238.271,30.141Zm38.206,169.011c-.336.5-1.367.528-3.094,1.151-4.653-15.517-3.286-30.867-.144-46.12,2.83-13.79,5.588-27.7,12.711-40.172,1.559-2.734,3.741-5.636,7.339-4.941,3.621.7,4.965,4.389,4.917,7.339-.528,29.284-4.821,57.68-21.729,82.743Zm83.007-83.726c1.487,16.045-3.046,31.011-9.354,45.617C348.787,145.046,353.272,130.152,359.483,115.426Z" transform="translate(-5.005 -0.138)" fill="#feb845"/>
          <path id="Path_21" data-name="Path 21" d="M239.979,218.661H227.388l-.288-.168c-11.128-6.739-17.892-16.812-22.233-33.313-.48,1.2-.959,2.35-1.391,3.43-1.751,4.317-3.262,8.034-4.893,11.68-3.238,7.2-7.891,14.414-17.844,13.335-8.418-.911-13.647-6.523-16-17.148-3.142-14.222-1.751-28.54-.384-42.4.5-5.132,1.031-10.433,1.3-15.637l.168-2.878c.216-3.526.36-6.068-.216-6.619-.5-.48-2.686-.264-5.444,0-1.2.12-2.59.264-4.221.408-12.375,1.007-13.383,8.3-14.534,16.74-.144,1.1-.312,2.206-.48,3.31-5.66,35.184-38.709,64.084-73.7,64.444H66.195c-36.815,0-59.023-20.6-60.99-56.649C2.615,108.6,17.317,61.809,48.9,18.135,58.976,4.2,73.342,0,91.569,5.568c1.535.48,3.07.983,4.6,1.487,1.1.36,2.206.743,3.31,1.1,42.882,13.719,46.576,34.464,38.661,75.764-.983,5.156-3.262,11.92-11.7,11.776-8.13-.192-11.008-6.476-12.447-11.176-3.142-10.217-2.087-20.482-.648-30.987C115.673,36.77,112,30.7,95.5,24.035c-11.752-4.749-19.187-1.847-27.437,10.793C41.108,76.175,28.229,115.82,28.733,156.04c.216,17.508,6.5,30.675,17.7,37.054,11.3,6.452,26,5.108,41.419-3.741,15.925-9.138,32.4-21.681,33.865-45.377.264-4.173-.336-6.859-1.895-8.442-1.535-1.583-4.269-2.278-8.322-2.111l-4.749.168c-21.369.767-43.482,1.535-64.779,6.5a11.331,11.331,0,0,0-1.3.408c-1.871.648-4.677,1.607-6.428-1.223-1.559-2.542-.168-5.252.959-7.411l.216-.432c3.622-7.2,10.457-8.85,16.549-9.857l8.634-1.415c33.409-5.54,67.945-11.248,102.721-6.044,2.087.312,3.31-.192,5.037-2.063,4.365-4.725,9.881-5.444,15.517-1.967,4.8,2.95,3.861,7.147,3.022,10.841-.144.672-.312,1.367-.432,2.039q-1.007,5.576-2.087,11.152c-3,15.685-6.092,31.922-5.516,48.255l.048,1.079a47.83,47.83,0,0,0,.72,8.106c.815,3.957,2.614,4.005,3.19,4.029,1.727.168,2.47-1.271,3.358-3.885,1.151-3.43,2.35-6.883,3.574-10.313,5.876-16.74,11.944-34.057,12.28-52.068.7-35.951,8.874-71.087,16.788-105.048l2.111-9.114c1.583-6.835,3.861-13.575,12.447-14.2,7.963-.576,14.558,3.286,18.611,10.841,4.269,8.01,5.876,17.268,4.869,28.3-4.245,46.48-15.277,82.6-34.7,113.634-7.1,11.32-2.182,35.136,9.042,43.938,2.015,1.559,3.693,2.206,5.013,1.943,1.943-.408,3.358-2.854,4.869-5.78,8.394-16.117,12.735-33.577,16.477-50.053,2.9-12.855,6.188-27.437,12.879-40.724,7.938-15.757,14.03-18.107,30.2-10.96q1.4-10.469,2.854-20.866c2.638-19.139,5.348-38.949,7.6-58.4.5-4.317,1.391-8.634,4.437-10.984,2.135-1.631,5.109-2.159,9.09-1.559,3.6.528,6.164,1.895,7.651,4.053,2.254,3.286,1.631,7.795.743,11.776-10.769,48.015-16.213,97.637-21.489,145.627l-.672,6.14c-1.007,9.042-2.015,18.371,2.015,27.653,3.358-2.494,4.485-6.284,5.588-9.929.264-.911.552-1.8.839-2.662A536.728,536.728,0,0,0,336.2,122.919a60.608,60.608,0,0,1,2.974-10.409c3.118-7.483,7.387-17.772,20.146-14.606,10.529,2.59,15.733,9.761,15.4,21.3-.672,23.935-10.457,44.873-20.962,63.94-2.878,5.2-3.574,8.73.528,13.455,2.878,3.31,5.276,4.8,7.339,4.6,2.015-.192,4.029-2.087,6.116-5.756,9.33-16.357,14.342-34.656,19.187-52.356l1.631-5.948c3.5-12.615,7.123-25.662.648-38.493a4.22,4.22,0,0,1-.36-1.655q-.036-1.439-.144-2.878c-.36-6.763-.743-13.743,5.756-18.923a8.815,8.815,0,0,1,10.5-.216c6.715,4.869,5.732,12.351,4.965,18.347l-.168,1.343c-1.007,8.13,1.679,12.9,9.234,16.429,11.3,5.276,16.453,14.678,14.918,27.221-1.559,12.687-3.334,27.077-4.2,41.084-.072,1.319-.288,2.782-.48,4.317-.911,6.739-1.223,11.584,2.95,12.567,4.557,1.055,5.9-3,7.435-9.306a44.121,44.121,0,0,1,1.3-4.653,414.94,414.94,0,0,0,16.165-54.155h0c1.271-5.66,2.806-8.37,5.132-9.042,2.374-.7,5.132.815,9.5,5.18l.36.36v9.977a213.951,213.951,0,0,1-19.139,63.46c-.336.719-.672,1.439-1.007,2.182-3.646,7.867-7.747,16.764-19.978,15.877-10.529-.791-17.868-8.994-20.674-23.12-2.9-14.654-2.23-29.62-1.583-44.082l.288-6.907c.048-.935.168-1.895.288-2.854.336-2.494.672-4.845-.791-7.315-1.7,1.919-2.158,4.317-2.638,6.859a30.2,30.2,0,0,1-.672,3.07c-1.151,4.125-2.254,8.3-3.334,12.447-3.837,14.75-7.819,29.979-15.4,43.818-8.322,15.134-18.707,21.105-33.721,19.379-10.816-1.271-15.589-9.09-20.194-16.668-.312-.5-.6-1.007-.911-1.511-9.33,10.217-14.942,15.086-20.626,15.086h-.048c-5.013-.024-9.545-3.885-15.949-11.032-1.223,1.223-2.4,2.542-3.55,3.837-4.725,5.3-9.593,10.745-18.683,10.5-10.409-.36-14.942-6.859-18.779-13.79-1.895,7.147-7.867,10.649-13.671,14.054l-1.343.791Zm-11.92-2.4h11.248l.791-.456c6.428-3.765,12.519-7.339,13.071-15.709l.264-4.149,2.374,4.413c4.005,7.459,7.819,14.51,18.012,14.87,7.963.264,12.256-4.581,16.812-9.689,1.463-1.631,2.974-3.334,4.6-4.845l.911-.815.815.911c6.236,7.027,10.7,11.1,14.99,11.152H312c4.989,0,10.625-5.228,19.93-15.493l1.055-1.175.839,1.343c.6.959,1.2,1.919,1.775,2.878,4.509,7.411,8.754,14.414,18.419,15.541,14.078,1.631,23.432-3.789,31.322-18.131,7.459-13.551,11.392-28.66,15.182-43.266q1.619-6.26,3.334-12.5c.264-.911.432-1.895.624-2.854.576-3.094,1.223-6.6,4.413-9.162l.935-.743.743.935c2.95,3.645,2.47,7.147,2.039,10.217a24.729,24.729,0,0,0-.264,2.614l-.288,6.907c-.648,14.318-1.3,29.116,1.535,43.506,2.566,12.951,9.114,20.482,18.491,21.177,10.553.863,14.15-6.979,17.628-14.486.336-.743.7-1.487,1.031-2.206a212.025,212.025,0,0,0,18.9-62.6v-8.8c-3.286-3.214-5.492-4.581-6.787-4.221-1.319.384-2.446,2.758-3.454,7.267h0a417.136,417.136,0,0,1-16.261,54.466,39.518,39.518,0,0,0-1.223,4.365c-1.3,5.372-3.07,12.759-10.313,11.08-6.643-1.535-5.612-9.114-4.8-15.205.192-1.463.384-2.878.456-4.149.863-14.078,2.638-28.492,4.2-41.228,1.415-11.56-3.142-19.882-13.551-24.751-8.562-4.005-11.752-9.665-10.6-18.9l.168-1.343c.768-5.948,1.559-12.088-3.981-16.117a6.332,6.332,0,0,0-7.579.168c-5.54,4.413-5.2,10.5-4.845,16.932.048.983.1,1.943.144,2.9a1.584,1.584,0,0,0,.1.648c6.883,13.647,3.142,27.149-.48,40.2l-1.631,5.948c-4.893,17.844-9.953,36.263-19.427,52.907-2.494,4.389-5.108,6.667-7.963,6.955-2.9.264-5.972-1.487-9.4-5.42-4.965-5.708-3.981-10.409-.815-16.165,10.361-18.8,20.026-39.429,20.674-62.861.288-10.409-4.149-16.6-13.575-18.9-9.977-2.446-13.623,4.221-17.34,13.215a58.323,58.323,0,0,0-2.854,10,535.075,535.075,0,0,1-17,60.294c-.288.839-.552,1.7-.815,2.59-1.3,4.269-2.758,9.138-7.795,12.04l-1.127.648-.552-1.151c-4.989-10.313-3.885-20.41-2.806-30.2l.672-6.14c5.276-48.063,10.745-97.757,21.513-145.891.791-3.478,1.343-7.387-.384-9.905-1.1-1.607-3.07-2.59-6.02-3.022-3.31-.48-5.684-.12-7.267,1.1-1.895,1.463-2.9,4.173-3.526,9.354-2.254,19.475-4.989,39.285-7.627,58.448q-1.547,11.188-3.07,22.472L302.48,95.7l-1.463-.672c-16.141-7.435-20.938-5.876-28.516,9.186-6.547,13-9.809,27.437-12.687,40.172-3.765,16.645-8.154,34.248-16.668,50.629-1.463,2.806-3.286,6.308-6.5,7-2.087.456-4.365-.336-6.979-2.4-12.016-9.4-17.2-34.92-9.593-47.079,19.235-30.723,30.147-66.482,34.344-112.578.959-10.553-.528-19.355-4.581-26.957-3.574-6.667-9.354-10.049-16.309-9.569-7,.5-8.8,5.9-10.289,12.351L221.128,24.9c-7.891,33.865-16.045,68.856-16.74,104.544-.36,18.4-6.476,35.9-12.4,52.812-1.2,3.43-2.4,6.859-3.55,10.289-.7,2.111-1.895,5.708-5.708,5.516-1.943-.048-4.485-1.127-5.468-5.948a51.079,51.079,0,0,1-.767-8.514v-1.079c-.6-16.621,2.518-32.977,5.54-48.782.7-3.717,1.415-7.411,2.087-11.128.12-.719.288-1.439.456-2.159.911-3.957,1.247-6.308-1.919-8.25-4.629-2.83-8.946-2.3-12.5,1.559-1.895,2.039-3.813,3.31-7.147,2.806-34.416-5.156-68.761.552-101.978,6.044L52.4,124.022c-7.051,1.151-11.968,2.974-14.8,8.562l-.216.456c-1.127,2.23-1.823,3.789-1.031,5.084.624,1.031,1.415.959,3.6.216a15.852,15.852,0,0,1,1.535-.48c21.513-5.013,43.746-5.8,65.235-6.571l4.749-.168c4.845-.192,8.082.719,10.145,2.854,2.063,2.111,2.878,5.372,2.566,10.265-1.511,24.823-18.563,37.846-35.064,47.3-16.189,9.306-31.754,10.625-43.818,3.741-11.968-6.811-18.659-20.722-18.9-39.117-.5-40.724,12.5-80.8,39.741-122.555,8.9-13.647,17.412-16.932,30.339-11.7,17.46,7.051,21.777,14.246,19.307,32.042-1.415,10.241-2.446,20.218.552,29.955,2.015,6.523,5.061,9.354,10.217,9.473,5.228.12,7.963-2.806,9.306-9.833,7.795-40.652,4.365-59.791-37.03-73.03-1.127-.36-2.23-.72-3.358-1.1-1.511-.5-3.022-1.007-4.533-1.487C73.558,2.594,60.463,6.407,50.917,19.6,19.571,62.744,5.061,109.032,7.651,157.143c1.871,34.608,23.216,54.37,58.616,54.37h.983c33.865-.336,65.859-28.348,71.351-62.429.168-1.079.312-2.182.48-3.262,1.175-8.682,2.4-17.652,16.716-18.827,1.607-.12,2.974-.264,4.173-.384,4.029-.408,6.044-.624,7.339.624,1.367,1.319,1.247,3.574.935,8.49l-.168,2.854c-.288,5.252-.815,10.6-1.319,15.757-1.343,13.671-2.734,27.8.336,41.635,2.135,9.617,6.547,14.462,13.91,15.277,8.394.887,12.375-5.2,15.4-11.944,1.607-3.6,3.118-7.291,4.845-11.584.863-2.111,1.775-4.365,2.806-6.859l1.439-3.478.839,3.669c4.1,17.8,10.6,28.348,21.729,35.208ZM272.5,201.776l-.36-1.2c-5.132-17.124-2.782-33.961-.168-46.72l.168-.791c2.758-13.431,5.612-27.341,12.687-39.741,1.1-1.943,3.717-6.476,8.61-5.54,4.149.791,5.948,4.869,5.876,8.538-.456,24.367-3.358,55.857-21.945,83.39h0a3.2,3.2,0,0,1-2.135,1.127c-.432.12-.935.264-1.559.48l-1.2.432Zm19.642-91.689c-1.895,0-3.478,1.367-5.228,4.461-6.883,12.064-9.713,25.758-12.423,39.021l-.168.791c-2.494,12.184-4.749,28.157-.216,44.369.192-.048.36-.1.528-.144a5.9,5.9,0,0,0,.839-.264c18.179-27.005,21.033-57.992,21.465-82,.048-1.991-.743-5.516-3.933-6.14a5.3,5.3,0,0,0-.839-.1Zm57.1,55.761-.408-4.773c-1.463-17.46,3.957-33.145,9.45-46.192l1.871-4.413.432,4.773c1.631,17.748-4.2,34.009-9.449,46.216Zm9.234-45.041C354.452,131.1,350.95,142.825,351,155.56,354.932,145.679,358.6,133.711,358.481,120.808ZM216.259,131.7l.72-6.643c3.334-31.035,9.713-61.326,20.074-95.286l1.2-3.909,1.1,3.933c5.684,20.218-2.95,61.47-20.1,95.934l-2.974,6Zm21.729-96.821c-8.754,29.452-14.486,56.193-17.82,83.271C233.887,88.071,241.082,54.4,237.988,34.875Z" transform="translate(-4.914 -0.052)" fill="#333"/>
        </g>
      </g>
    </g>
  </g>
</svg>
