<?xml version="1.0" encoding="UTF-8"?>
<svg id="gilder-icon" xmlns="http://www.w3.org/2000/svg" xmlns:xlink="http://www.w3.org/1999/xlink" viewBox="0 0 153.97 151.22">
  <defs>
    <style>
      .cls-1 {
        fill: url(#linear-gradient-5);
      }

      .cls-2 {
        fill: url(#linear-gradient-6);
      }

      .cls-3 {
        fill: url(#linear-gradient);
      }

      .cls-4 {
        fill: url(#radial-gradient-2);
      }

      .cls-5 {
        fill: url(#radial-gradient-6);
      }

      .cls-6 {
        fill: url(#linear-gradient-2);
      }

      .cls-7 {
        fill: #ffc78d;
      }

      .cls-8 {
        fill: url(#radial-gradient);
      }

      .cls-9 {
        fill: url(#radial-gradient-3);
      }

      .cls-10 {
        fill: url(#radial-gradient-4);
      }

      .cls-11 {
        fill: url(#linear-gradient-4);
      }

      .cls-12 {
        fill: url(#linear-gradient-3);
      }

      .cls-13 {
        fill: url(#radial-gradient-5);
      }

      .cls-14 {
        fill: #fbcda1;
      }

      .cls-15 {
        fill: #e88523;
      }
    </style>
    <radialGradient id="radial-gradient" cx="117.02" cy="145.03" fx="117.02" fy="145.03" r="54.08" gradientTransform="translate(238.59 24.54) rotate(119.77)" gradientUnits="userSpaceOnUse">
      <stop offset="0" stop-color="#fff"/>
      <stop offset="1" stop-color="#fff" stop-opacity="0"/>
    </radialGradient>
    <linearGradient id="linear-gradient" x1="84.18" y1="145.03" x2="149.87" y2="145.03" gradientTransform="translate(238.59 24.54) rotate(119.77)" gradientUnits="userSpaceOnUse">
      <stop offset=".11" stop-color="#fff"/>
      <stop offset=".26" stop-color="#fff" stop-opacity=".85"/>
      <stop offset=".59" stop-color="#fff" stop-opacity=".48"/>
      <stop offset="1" stop-color="#fff" stop-opacity="0"/>
    </linearGradient>
    <radialGradient id="radial-gradient-2" cx="117.02" cy="145.03" fx="117.02" fy="145.03" r="15.99" gradientTransform="translate(238.59 24.54) rotate(119.77)" gradientUnits="userSpaceOnUse">
      <stop offset=".52" stop-color="#fff"/>
      <stop offset=".6" stop-color="#fff" stop-opacity=".85"/>
      <stop offset=".78" stop-color="#fff" stop-opacity=".48"/>
      <stop offset="1" stop-color="#fff" stop-opacity="0"/>
    </radialGradient>
    <linearGradient id="linear-gradient-2" x1="87.71" y1="145.03" x2="146.33" y2="145.03" gradientTransform="translate(238.59 24.54) rotate(119.77)" gradientUnits="userSpaceOnUse">
      <stop offset=".24" stop-color="#fff"/>
      <stop offset=".3" stop-color="#fff" stop-opacity=".99"/>
      <stop offset=".35" stop-color="#fff" stop-opacity=".94"/>
      <stop offset=".41" stop-color="#fff" stop-opacity=".87"/>
      <stop offset=".46" stop-color="#fff" stop-opacity=".76"/>
      <stop offset=".51" stop-color="#fff" stop-opacity=".63"/>
      <stop offset=".56" stop-color="#fff" stop-opacity=".46"/>
      <stop offset=".61" stop-color="#fff" stop-opacity=".27"/>
      <stop offset=".66" stop-color="#fff" stop-opacity=".04"/>
      <stop offset=".67" stop-color="#fff" stop-opacity="0"/>
    </linearGradient>
    <radialGradient id="radial-gradient-3" cx="111.92" cy="81.25" fx="111.92" fy="81.25" r="12.15" xlink:href="#radial-gradient"/>
    <linearGradient id="linear-gradient-3" x1="104.54" y1="81.25" x2="119.3" y2="81.25" xlink:href="#linear-gradient"/>
    <radialGradient id="radial-gradient-4" cx="111.92" cy="81.25" fx="111.92" fy="81.25" r="3.59" xlink:href="#radial-gradient-2"/>
    <linearGradient id="linear-gradient-4" x1="105.33" y1="81.25" x2="118.5" y2="81.25" xlink:href="#linear-gradient-2"/>
    <radialGradient id="radial-gradient-5" cx="71.31" cy="90.24" fx="71.31" fy="90.24" r="20.43" xlink:href="#radial-gradient"/>
    <linearGradient id="linear-gradient-5" x1="58.9" y1="90.24" x2="83.72" y2="90.24" xlink:href="#linear-gradient"/>
    <radialGradient id="radial-gradient-6" cx="71.31" cy="90.24" fx="71.31" fy="90.24" r="6.04" xlink:href="#radial-gradient-2"/>
    <linearGradient id="linear-gradient-6" x1="60.23" y1="90.24" x2="82.38" y2="90.24" xlink:href="#linear-gradient-2"/>
  </defs>
  <g id="jewel">
    <polygon points="80.65 147.19 49.43 84 9.69 62.68 80.65 147.19" style="fill: #e88523;"/>
    <polygon points="36.36 41.36 55.96 54.3 49.43 84 9.69 62.68 36.36 41.36" style="fill: #ffc78d;"/>
    <polygon points="80.65 147.19 112.1 84.07 151.83 62.75 80.65 147.19" style="fill: #e88523;"/>
    <polygon points="125.16 41.43 106.78 54.3 112.1 84.07 151.83 62.75 125.16 41.43" style="fill: #ffc78d;"/>
    <polygon points="80.77 147.89 112.1 84.07 81.74 84.07 81.73 84 49.43 84 80.77 147.89 80.77 147.89 80.77 147.89 80.77 147.89 80.77 147.89" style="fill: #fbcda1;"/>
    <polygon points="112.1 84.07 106.78 54.3 55.96 54.3 49.43 84 112.1 84.07" style="fill: #ffc78d;"/>
    <polygon points="106.29 32.79 55.24 32.72 36.36 41.04 55.24 54.24 106.29 54.3 125.16 41.11 106.29 32.79" style="fill: #e88523;"/>
    <path d="M153.97,62.51l-25.75-21.71-21.64-9.54-51.64-.07-21.25,9.81L7.57,62.45l73.2,88.77L153.97,62.51Zm-8.31,5.26l-57.3,67.96,24.8-50.53,16.71-8.96,15.78-8.47Zm3.46-5.28l-15.75,8.45-20.21,10.84-4.47-25-.32-1.77,16.73-11.71,24.01,19.19Zm-38.77,20.05l-29-.03-30.09-.03,3.83-17.39,2.04-9.26h48.46l4.77,26.71ZM55.53,34.24l50.47,.07,16.11,7.1-16.26,11.37-49.57-.07-10.87-7.18-5.99-4.19,16.11-7.1ZM12.41,62.42l24.04-19.21,7.4,4.89,10.4,7.27-2.76,12.55-3.04,13.83L12.45,62.45l-.04-.02Zm3.42,5.25l32.33,17.49,14.01,28.12,11.31,23.06L15.83,67.68Zm35.99,17.84l29.46,.03,28.42,.03-29.05,58.3-28.83-58.37Z"/>
  </g>
  <g id="sparkle-1">
    <polygon points="3.67 74.19 50.85 54.69 0 50.11 50.97 53.01 7.15 26.82 51.82 51.55 23.69 8.93 53.21 50.6 46.36 0 54.87 50.34 70.66 1.79 56.49 50.84 91.77 13.94 57.72 51.98 105.53 34.05 58.34 53.55 109.19 58.13 58.22 55.23 102.05 81.42 57.38 56.69 85.5 99.31 55.99 57.64 62.83 108.24 54.32 57.9 38.54 106.45 52.71 57.4 17.42 94.3 51.47 56.26 3.67 74.19" style="fill: url(#radial-gradient);"/>
    <polygon points="12.8 61.04 49.83 50.71 47.68 12.32 58.01 49.35 96.39 47.2 59.37 57.53 61.52 95.92 51.18 58.89 12.8 61.04" style="fill: url(#linear-gradient);"/>
    <circle cx="54.6" cy="54.12" r="15.99" style="fill: url(#radial-gradient-2);"/>
    <polygon points="33.18 75.64 50.39 54.13 33.08 32.7 54.59 49.92 76.02 32.6 58.8 54.11 76.11 75.54 54.61 58.32 33.18 75.64" style="fill: url(#linear-gradient-2);"/>
    <animateTransform 
      attributeName="transform" type="rotate" 
      from="0 54.6 54.12" to="360 54.6 54.12"
       dur="1.5s" repeatCount="indefinite" />
  </g>
  <g id="sparkle-2">
    <polygon points="101.05 85.87 111.66 81.49 100.23 80.46 111.68 81.11 101.83 75.22 111.87 80.78 105.55 71.2 112.19 80.57 110.65 69.19 112.56 80.51 116.11 69.6 112.92 80.62 120.85 72.33 113.2 80.88 123.94 76.85 113.34 81.23 124.77 82.26 113.31 81.61 123.16 87.49 113.12 81.94 119.44 91.51 112.81 82.15 114.35 93.52 112.44 82.21 108.89 93.12 112.07 82.1 104.14 90.39 111.79 81.84 101.05 85.87" style="fill: url(#radial-gradient-3);"/>
    <polygon points="103.1 82.91 111.43 80.59 110.94 71.96 113.26 80.29 121.89 79.8 113.57 82.12 114.05 90.75 111.73 82.43 103.1 82.91" style="fill: url(#linear-gradient-3);"/>
    <circle cx="112.5" cy="81.36" r="3.59" style="fill: url(#radial-gradient-4);"/>
    <polygon points="107.68 86.19 111.55 81.36 107.66 76.54 112.5 80.41 117.31 76.52 113.44 81.36 117.33 86.17 112.5 82.3 107.68 86.19" style="fill: url(#linear-gradient-4);"/>
    <animateTransform attributeName="transform"
      attributeType="XML" type="rotate" 
      from="0 112.5 81.36" to="360 112.5 81.36"
      dur="1s" repeatCount="indefinite" />
  </g>
  <g id="sparkle-3">
    <polygon points="105.61 49.23 123.44 41.86 104.23 40.13 123.49 41.22 106.93 31.33 123.8 40.67 113.18 24.57 124.33 40.31 121.74 21.19 124.96 40.21 130.92 21.87 125.57 40.4 138.9 26.46 126.04 40.83 144.1 34.06 126.27 41.43 145.48 43.16 126.22 42.06 142.78 51.96 125.91 42.61 136.53 58.71 125.38 42.97 127.97 62.09 124.75 43.07 118.79 61.41 124.14 42.88 110.81 56.82 123.67 42.45 105.61 49.23" style="fill: url(#radial-gradient-5);"/>
    <polygon points="109.06 44.26 123.05 40.35 122.24 25.85 126.14 39.84 140.65 39.03 126.66 42.93 127.47 57.43 123.57 43.44 109.06 44.26" style="fill: url(#linear-gradient-5);"/>
    <circle cx="124.85" cy="41.64" r="6.04" style="fill: url(#radial-gradient-6);"/>
    <polygon points="116.76 49.77 123.27 41.65 116.73 33.55 124.85 40.05 132.95 33.51 126.44 41.64 132.98 49.73 124.86 43.23 116.76 49.77" style="fill: url(#linear-gradient-6);"/>
    <animateTransform attributeName="transform"
      attributeType="XML" type="rotate" 
      from="0 124.85 41.64" to="360 124.85 41.64"
      dur="1s" repeatCount="indefinite" />
  </g>
</svg>