<svg xmlns="http://www.w3.org/2000/svg" xmlns:xlink="http://www.w3.org/1999/xlink" width="208" height="208" viewBox="0 0 208 208">
  <defs>
    <clipPath id="clip-path">
      <rect id="Rectangle_9" data-name="Rectangle 9" width="208" height="208" transform="translate(88 53)" fill="#707070" stroke="#707070" stroke-width="1"/>
    </clipPath>
  </defs>
  <g id="Mask_Group_3" data-name="Mask Group 3" transform="translate(-88 -53)" clip-path="url(#clip-path)">
    <g id="no-cost" transform="translate(88.002 53.058)">
      <g id="Group_6" data-name="Group 6">
        <path id="Path_3" data-name="Path 3" d="M142.244,102.091a50.775,50.775,0,0,0-11.821-7.661c-7.034-3.193-14.438-5.56-21.631-8.413-2.7-1.071-5.411-2.156-8.06-3.356l50.709,52.65a44.5,44.5,0,0,0,.842-5.016c1.21-10.93-1.407-20.813-10.039-28.2Z" fill="#707070"/>
        <path id="Path_4" data-name="Path 4" d="M74.961,100.992a85.092,85.092,0,0,0,18.952,10.07L59.961,75.814c.846,9.779,6.032,18.564,15,25.181Z" fill="#707070"/>
        <path id="Path_5" data-name="Path 5" d="M116.234,134.23a10.7,10.7,0,0,1-5.224,3.123,26.068,26.068,0,0,1-18.938-1.83c-5.616-2.669-10.2-6.722-14.868-10.687-2.714-2.309-4.125-2.246-6.732.2q-7.1,6.666-14.106,13.44c-2.4,2.319-2.357,3.664-.107,6.219a65.427,65.427,0,0,0,33.532,20.765,2.09,2.09,0,0,1,1.823,2.472q-.135,5.2.007,10.407c.069,2.621.95,3.411,3.55,3.442,2.659.031,5.314.007,7.973.007,2.732,0,5.463.021,8.195,0,2.87-.028,3.848-.991,3.879-3.865.035-3.175.066-6.351-.014-9.523-.038-1.536.239-2.347,2.035-2.659a39.76,39.76,0,0,0,7.651-2.167,53.19,53.19,0,0,0,12.84-7.016l-21.493-22.318Z" fill="#707070"/>
        <path id="Path_6" data-name="Path 6" d="M92.481,74.091a9.1,9.1,0,0,1,.1-1.283c.492-3.394,2.721-5.311,5.793-6.323a21.432,21.432,0,0,1,13.492-.225c5.259,1.664,9.557,4.853,13.669,8.389,3.612,3.106,4.954,3.012,8.171-.4,3.7-3.921,7.37-7.862,11.062-11.783,3.879-4.118,3.851-5.848-.194-9.765-.211-.2-.426-.406-.652-.6a57.217,57.217,0,0,0-26.79-13.433c-1.456-.291-1.986-.839-1.934-2.309.094-2.728.031-5.46.024-8.192-.01-3.48-1.439-4.933-4.978-4.957q-7.087-.047-14.175,0c-3.4.017-4.448,1.089-4.486,4.565-.035,3.026-.073,6.056.021,9.079.042,1.4-.541,1.945-1.82,2.25a55.576,55.576,0,0,0-6.164,1.761,39.807,39.807,0,0,0-14.639,8.843L92.471,74.1Z" fill="#707070"/>
      </g>
      <path id="Path_7" data-name="Path 7" d="M207.995,100.33c.125,28.246-7.678,50.907-23.732,70.8A97.787,97.787,0,0,1,173.1,182.769a103.47,103.47,0,0,1-15.506,10.84,97.89,97.89,0,0,1-42.947,13.87c-27.022,2.243-51.5-4.815-73.079-21.24-19.319-14.7-32.309-33.907-38.108-57.476C-5.02,94.27,2.052,62.977,24.918,35.706,40.226,17.451,60.01,6.15,83.416,1.9,115.763-3.976,144.875,3.82,170.2,24.72c18.768,15.489,30.509,35.491,35.522,59.3,1.314,6.243,1.782,12.667,2.274,16.31ZM37.342,45.235C8.039,77.6,6.379,133.228,44.754,168.58c36.517,33.64,87.063,28.211,114.55,4.77Q98.366,109.339,37.342,45.235ZM172.22,160.94c28.689-33.73,27.965-88.5-9.713-122.284-37.526-33.647-87.6-26.53-113.576-4.229C89.237,77.326,129.959,119.819,172.22,160.94Z" fill="#707070"/>
    </g>
  </g>
</svg>
