<?xml version="1.0" encoding="UTF-8"?>
<svg id="Layer_1" data-name="Layer 1" xmlns="http://www.w3.org/2000/svg" viewBox="0 0 100.84 78.82">
  <polygon points="50.33 76.17 28.83 34.67 1.46 20.67 50.33 76.17" style="fill: #e88523;"/>
  <polygon points="19.83 6.67 33.33 15.17 28.83 34.67 1.46 20.67 19.83 6.67" style="fill: #ffc78d;"/>
  <polygon points="50.33 76.17 72 34.72 99.37 20.72 50.33 76.17" style="fill: #e88523;"/>
  <polygon points="81 6.72 68.33 15.17 72 34.72 99.37 20.72 81 6.72" style="fill: #ffc78d;"/>
  <polygon points="50.42 76.63 72 34.72 51.09 34.72 51.08 34.67 28.83 34.67 50.42 76.63 50.42 76.63 50.42 76.63 50.42 76.63 50.42 76.63" style="fill: #fbcda1;"/>
  <polygon points="72 34.72 68.33 15.17 33.33 15.17 28.83 34.67 72 34.72" style="fill: #ffc78d;"/>
  <polygon points="68 1.04 32.83 1 19.83 6.46 32.83 15.13 68 15.17 81 6.51 68 1.04" style="fill: #e88523;"/>
  <path d="M100.84,20.57l-17.74-14.26L68.2,.05l-35.57-.05-14.64,6.44L0,20.52l50.42,58.29L100.84,20.57Zm-5.72,3.45l-39.46,44.63,17.08-33.18,11.51-5.89,10.87-5.56Zm2.38-3.46l-10.84,5.55-13.92,7.12-3.08-16.42-.22-1.17,11.52-7.69,16.54,12.6Zm-26.71,13.16l-19.97-.02-20.73-.02,2.64-11.42,1.4-6.08h33.37l3.29,17.54ZM33.04,2l34.76,.04,11.1,4.66-11.2,7.46-34.14-.04-7.49-4.72-4.13-2.75,11.1-4.66ZM3.33,20.51L19.89,7.89l5.1,3.21,7.16,4.77-1.9,8.24-2.1,9.08L3.36,20.52h-.03Zm2.36,3.44l22.27,11.48,9.65,18.46,7.79,15.14L5.69,23.96Zm24.79,11.72l20.29,.02,19.58,.02-20.01,38.29L30.48,35.68Z" style="fill: #333;"/>
</svg>