<?xml version="1.0" encoding="UTF-8"?>
<svg id="Layer_1" data-name="Layer 1" xmlns="http://www.w3.org/2000/svg" viewBox="0 0 474.94 458.1">
  <path d="M12.01,236.72c.66-55.64,18.33-105.11,54.88-147.2C103.6,47.23,150.07,22.29,205.54,14.24c11.82-1.71,23.71-2.49,35.64-2.16,53.56,1.5,101.2,19.03,142.19,53.65,36.23,30.6,60.36,69.05,72.48,114.94,4.16,15.75,6.39,31.79,6.95,48.08,1.38,40.43-7.32,78.56-25.9,114.44-9.44,18.23-21.24,34.83-35.3,49.81-16.57,17.65-35.49,32.13-57.35,42.67-8.59,4.14-17.49,7.45-26.72,9.89-5.78,1.53-8.83-.02-11.01-5.63-16.47-42.3-32.93-84.6-49.38-126.91-2.14-5.5-.52-9.12,5.04-11.31,7.06-2.78,13.74-6.23,19.69-10.98,8.52-6.8,14.47-15.42,17.72-25.8,4.29-13.72,5.67-27.73,2.45-41.85-6.23-27.3-29.39-47.95-57.24-50.75-31.19-3.14-59.1,14.56-69.54,42.19-3.28,8.67-4.33,17.66-3.72,26.91,.67,10.14,2.47,20,6.61,29.34,6.8,15.35,18.03,26.12,33.96,31.49,6.83,2.3,8.86,6.58,6.04,13.41-13.36,32.41-26.46,64.94-39.65,97.42-3.67,9.05-7.34,18.1-11.05,27.13-2.07,5.02-5.2,6.54-10.45,5.11-22.51-6.14-42.5-17.15-60.55-31.74-35.2-28.46-59.31-64.58-73.41-107.46-6.58-19.99-10.2-40.54-10.79-61.6-.04-1.33-.19-2.66-.23-3.99-.04-1.27,0-2.54,0-3.8Zm436.27-2.17c-.37-5.34-.61-13.34-1.54-21.26-5.87-49.8-26.97-92.13-62.87-127.1-17.11-16.67-36.59-29.88-58.27-39.85-32.26-14.84-66.18-21.04-101.58-19.03-19.67,1.12-38.82,4.98-57.42,11.54-26.98,9.52-51,23.96-72.02,43.32-19.66,18.11-35.36,39.2-46.94,63.33-15.66,32.64-22.31,67.09-20.4,103.17,1.1,20.9,5.33,41.22,12.67,60.84,14.75,39.4,38.36,72.25,72.3,97.4,12.56,9.3,26.21,16.64,41.02,21.73,2.38,.82,2.59,.73,3.47-1.42,14.96-36.83,29.91-73.66,44.91-110.47,.68-1.67,.36-2.44-1.26-3.2-16.7-7.79-28.56-20.3-35.93-37.13-4.58-10.46-6.76-21.46-7.62-32.81-.8-10.5,.1-20.78,3.33-30.8,11.93-36.93,48.7-59.82,87.43-55.12,33.93,4.12,61.17,28.86,69.02,62.13,2.61,11.08,2.36,22.26,.87,33.46-3.54,26.5-16.79,46.18-40.85,58.29-3.53,1.78-3.69,.97-2,5.31,14.34,36.87,28.69,73.73,43.04,110.6,.85,2.18,1.13,2.41,3.4,1.52,5.9-2.31,11.9-4.44,17.59-7.18,22.32-10.77,41.25-26.03,57.31-44.76,34.48-40.2,51.48-87.04,52.35-142.52Z" style="stroke: #000; stroke-miterlimit: 10; stroke-width: 24px;"/>
</svg>