<?xml version="1.0" encoding="UTF-8"?>
<svg id="Layer_1" data-name="Layer 1" xmlns="http://www.w3.org/2000/svg" viewBox="0 0 196.7 93.23">
  <g style="opacity: .75;">
    <g>
      <path d="M78.49,22.23c-.01,2.79-.49,5.61-3.91,5.67-3.65,.06-5.76-2.49-5.9-5.91-.12-3.02,1.71-5.52,4.91-5.65,3.75-.16,4.92,2.56,4.9,5.89Z"/>
      <path d="M188.51,56.09c-1.73,7.71-4,15.26-6.76,22.64-.88,2.35-.94,6.89-4.23,6.13-2.92-.68-1.58-4.92-1.42-7.55,.35-5.73,1.05-11.45,1.75-17.16,.63-5.08-1.43-8.73-5.93-10.83-3.33-1.55-4.59-3.71-4.14-7.36,.33-2.67,.95-5.75-1.79-7.74-1.1-.8-2.68-.79-3.77,.08-2.88,2.3-2.26,5.58-2.15,8.68,0,.16,.03,.34,.1,.48,2.85,5.65,1.19,11.26-.34,16.77-2.28,8.22-4.35,16.53-8.64,24.05-1.9,3.33-3.82,3.55-6.42,.56-1.88-2.17-1.54-3.89-.28-6.17,4.54-8.26,8.41-16.76,8.68-26.44,.12-4.42-1.8-7.34-6.04-8.38-4.76-1.17-6.38,2.35-7.81,5.8-.56,1.35-.9,2.81-1.21,4.25-1.86,8.5-4.24,16.86-7.07,25.09-.7,2.03-1.03,4.47-3.37,5.83-2.01-4.14-1.57-8.26-1.12-12.32,2.33-21.22,4.57-42.45,9.25-63.33,.59-2.63,.79-5.43-3.09-6-3.79-.55-4.68,1.44-5.07,4.8-1.3,11.22-2.93,22.4-4.45,33.73-7.02-3.23-9.26-2.47-12.55,4.06-2.68,5.33-4.03,11.09-5.33,16.86-1.63,7.21-3.46,14.37-6.91,20.99-1.04,1.99-2.13,3.9-4.87,1.76-4.72-3.69-7.02-13.96-3.88-18.97,9.05-14.46,12.87-30.46,14.4-47.16,.36-3.98-.06-7.94-1.97-11.52-1.49-2.79-3.98-4.49-7.28-4.25-3.3,.24-4.13,2.91-4.74,5.54-3.62,15.67-7.56,31.25-7.87,47.5-.17,9.12-3.75,17.6-6.63,26.16-.32,.94-.72,1.99-1.89,1.96-1.17-.04-1.62-1.15-1.81-2.08-.26-1.27-.28-2.61-.32-3.92-.29-8.46,1.71-16.64,3.18-24.88,.32-1.8,1.18-3.61-.85-4.86-2.07-1.27-4.15-1.1-5.84,.74-.74,.8-1.4,1.19-2.54,1.02-15.65-2.34-30.95,.61-46.28,3.12-2.69,.44-5.18,1.16-6.54,3.84-.45,.9-1.04,1.91-.51,2.79,.65,1.07,1.81,.32,2.68,.12,9.57-2.23,19.32-2.44,29.08-2.79,3.83-.14,5,1.41,4.78,4.93-.58,9.56-6.85,15.01-14.37,19.32-13.59,7.8-25.2,1.21-25.4-14.32-.24-18.76,6.41-35.39,16.49-50.82,3.7-5.67,7.07-6.7,12.04-4.69,7.09,2.87,8.74,5.64,7.75,12.83-.59,4.24-1.05,8.49,.25,12.71,.73,2.39,1.94,4.24,4.72,4.3,3.02,.07,3.94-2.22,4.38-4.5,3.39-17.7,1.34-25.54-15.78-31.02-1.1-.35-2.19-.74-3.29-1.08-7.13-2.19-12.96-.86-17.24,5.06C5.79,27.61-1.03,46.77,.13,68.11c.82,15.06,10.31,23.3,25.35,23.14,14.43-.15,27.9-11.95,30.24-26.45,.65-4.07,.44-8.28,6.71-8.78,5.28-.43,4.88-1.18,4.58,4.3-.43,8.01-2.18,16.02-.4,24.07,.76,3.42,2.36,6.33,6.24,6.76,3.79,.41,5.59-2.29,6.93-5.27,1.01-2.24,1.89-4.54,3.19-7.71,1.57,6.85,4.12,11.86,9.41,15.07h4.97c2.86-1.69,5.87-3.25,6.14-7.21,1.77,3.27,3.41,6.61,8.11,6.77,4.67,.16,6.55-3.67,9.29-6.19,6.02,6.8,7.73,6.58,15.33-1.8,2.19,3.48,3.97,7.35,8.78,7.91,5.92,.69,10.12-1.57,13.56-7.82,4.02-7.31,5.54-15.45,7.77-23.35,.45-1.59,.36-3.49,1.93-4.76,1.43,1.77,.69,3.42,.63,5.02-.27,7.06-.85,14.13,.53,21.14,1.11,5.62,4.03,8.93,8.16,9.24,5.19,.39,6.62-3.8,8.27-7.24,3.98-8.32,6.67-17.09,7.93-26.25v-3.95c-3.07-3.06-4.31-2.84-5.26,1.37ZM96.74,15.1c2.33,8.28-1.14,25.15-8.35,39.64,1.53-14.23,4.46-26.9,8.35-39.64Zm15.93,70.47c-.14,.21-.57,.22-1.29,.48-1.94-6.47-1.37-12.87-.06-19.23,1.18-5.75,2.33-11.55,5.3-16.75,.65-1.14,1.56-2.35,3.06-2.06,1.51,.29,2.07,1.83,2.05,3.06-.22,12.21-2.01,24.05-9.06,34.5Zm34.61-34.91c.62,6.69-1.27,12.93-3.9,19.02-.56-6.67,1.31-12.88,3.9-19.02Z"/>
    </g>
  </g>
  <g>
    <g>
      <path d="M80.92,19.67c-.01,2.79-.49,5.61-3.91,5.67-3.65,.06-5.76-2.49-5.9-5.91-.12-3.02,1.71-5.52,4.91-5.65,3.75-.16,4.92,2.56,4.9,5.89Z" style="fill: #feba48;"/>
      <path d="M76.88,25.84c-3.65,0-6.11-2.49-6.27-6.39-.14-3.49,2.07-6.03,5.39-6.17,1.58-.06,2.85,.35,3.76,1.23,1.11,1.07,1.67,2.81,1.66,5.17,0,1.82-.02,6.09-4.4,6.17-.05,0-.1,0-.14,0Zm-.56-11.57c-.09,0-.18,0-.28,0-2.73,.11-4.55,2.22-4.43,5.13,.14,3.35,2.23,5.5,5.39,5.43,2.41-.04,3.4-1.54,3.42-5.17h0c.01-2.07-.44-3.57-1.35-4.44-.66-.63-1.58-.95-2.75-.95Z" style="fill: #333;"/>
    </g>
    <g>
      <path d="M190.94,53.52c-1.73,7.71-4,15.26-6.76,22.64-.88,2.35-.94,6.89-4.23,6.13-2.92-.68-1.58-4.92-1.42-7.55,.35-5.73,1.05-11.45,1.75-17.16,.63-5.08-1.43-8.73-5.93-10.83-3.33-1.55-4.59-3.71-4.14-7.36,.33-2.67,.95-5.75-1.79-7.74-1.1-.8-2.68-.79-3.77,.08-2.88,2.3-2.26,5.58-2.15,8.68,0,.16,.03,.34,.1,.48,2.85,5.65,1.19,11.26-.34,16.77-2.28,8.22-4.35,16.53-8.64,24.05-1.9,3.33-3.82,3.55-6.42,.56-1.88-2.17-1.54-3.89-.28-6.17,4.54-8.26,8.41-16.76,8.68-26.44,.12-4.42-1.8-7.34-6.04-8.38-4.76-1.17-6.38,2.35-7.81,5.8-.56,1.35-.9,2.81-1.21,4.25-1.86,8.5-4.24,16.86-7.07,25.09-.7,2.03-1.03,4.47-3.37,5.83-2.01-4.14-1.57-8.26-1.12-12.32,2.33-21.22,4.57-42.45,9.25-63.33,.59-2.63,.79-5.43-3.09-6-3.79-.55-4.68,1.44-5.07,4.8-1.3,11.22-2.93,22.4-4.45,33.73-7.02-3.23-9.26-2.47-12.55,4.06-2.68,5.33-4.03,11.09-5.33,16.86-1.63,7.21-3.46,14.37-6.91,20.99-1.04,1.99-2.13,3.9-4.87,1.76-4.72-3.69-7.02-13.96-3.88-18.97,9.05-14.46,12.87-30.46,14.4-47.16,.36-3.98-.06-7.94-1.97-11.52-1.49-2.79-3.98-4.49-7.28-4.25-3.3,.24-4.13,2.91-4.74,5.54-3.62,15.67-7.56,31.25-7.87,47.5-.17,9.12-3.75,17.6-6.63,26.16-.32,.94-.72,1.99-1.89,1.96-1.17-.04-1.62-1.15-1.81-2.08-.26-1.27-.28-2.61-.32-3.92-.29-8.46,1.71-16.64,3.18-24.88,.32-1.8,1.18-3.61-.85-4.86-2.07-1.27-4.15-1.1-5.84,.74-.74,.8-1.4,1.19-2.54,1.02-15.65-2.34-30.95,.61-46.28,3.12-2.69,.44-5.18,1.16-6.54,3.84-.45,.9-1.04,1.91-.51,2.79,.65,1.07,1.81,.32,2.68,.12,9.57-2.23,19.32-2.44,29.08-2.79,3.83-.14,5,1.41,4.78,4.93-.58,9.56-6.85,15.01-14.37,19.32-13.59,7.8-25.2,1.21-25.4-14.32-.24-18.76,6.41-35.39,16.49-50.82,3.7-5.67,7.07-6.7,12.04-4.69,7.09,2.87,8.74,5.64,7.75,12.83-.59,4.24-1.05,8.49,.25,12.71,.73,2.39,1.94,4.24,4.72,4.3,3.02,.07,3.94-2.22,4.38-4.5,3.39-17.7,1.34-25.54-15.78-31.02-1.1-.35-2.19-.74-3.29-1.08-7.13-2.19-12.96-.86-17.24,5.06C8.22,25.04,1.4,44.2,2.55,65.54c.82,15.06,10.31,23.3,25.35,23.14,14.43-.15,27.9-11.95,30.24-26.45,.65-4.07,.44-8.28,6.71-8.78,5.28-.43,4.88-1.18,4.58,4.3-.43,8.01-2.18,16.02-.4,24.07,.76,3.42,2.36,6.33,6.24,6.76,3.79,.41,5.59-2.29,6.93-5.27,1.01-2.24,1.89-4.54,3.19-7.71,1.57,6.85,4.12,11.86,9.41,15.07h4.97c2.86-1.69,5.87-3.25,6.14-7.21,1.77,3.27,3.41,6.61,8.11,6.77,4.67,.16,6.55-3.67,9.29-6.19,6.02,6.8,7.73,6.58,15.33-1.8,2.19,3.48,3.97,7.35,8.78,7.91,5.92,.69,10.12-1.57,13.56-7.82,4.02-7.31,5.54-15.45,7.77-23.35,.45-1.59,.36-3.49,1.93-4.76,1.43,1.77,.69,3.42,.63,5.02-.27,7.06-.85,14.13,.53,21.14,1.11,5.62,4.03,8.93,8.16,9.24,5.19,.39,6.62-3.8,8.27-7.24,3.98-8.32,6.67-17.09,7.93-26.25v-3.95c-3.07-3.06-4.31-2.84-5.26,1.37ZM99.17,12.53c2.33,8.28-1.14,25.15-8.35,39.64,1.53-14.23,4.46-26.9,8.35-39.64Zm15.93,70.47c-.14,.21-.57,.22-1.29,.48-1.94-6.47-1.37-12.87-.06-19.23,1.18-5.75,2.33-11.55,5.3-16.75,.65-1.14,1.56-2.35,3.06-2.06,1.51,.29,2.07,1.83,2.05,3.06-.22,12.21-2.01,24.05-9.06,34.5Zm34.61-34.91c.62,6.69-1.27,12.93-3.9,19.02-.56-6.67,1.31-12.88,3.9-19.02Z" style="fill: #feb845;"/>
      <path d="M99.92,91.17h-5.25l-.12-.07c-4.64-2.81-7.46-7.01-9.27-13.89-.2,.5-.4,.98-.58,1.43-.73,1.8-1.36,3.35-2.04,4.87-1.35,3-3.29,6.01-7.44,5.56-3.51-.38-5.69-2.72-6.67-7.15-1.31-5.93-.73-11.9-.16-17.68,.21-2.14,.43-4.35,.54-6.52l.07-1.2c.09-1.47,.15-2.53-.09-2.76-.21-.2-1.12-.11-2.27,0-.5,.05-1.08,.11-1.76,.17-5.16,.42-5.58,3.46-6.06,6.98-.06,.46-.13,.92-.2,1.38-2.36,14.67-16.14,26.72-30.73,26.87-.14,0-.29,0-.43,0-15.35,0-24.61-8.59-25.43-23.62C.95,45.28,7.08,25.77,20.25,7.56,24.45,1.75,30.44,0,38.04,2.32c.64,.2,1.28,.41,1.92,.62,.46,.15,.92,.31,1.38,.46,17.88,5.72,19.42,14.37,16.12,31.59-.41,2.15-1.36,4.97-4.88,4.91-3.39-.08-4.59-2.7-5.19-4.66-1.31-4.26-.87-8.54-.27-12.92,.97-6.99-.56-9.52-7.44-12.3-4.9-1.98-8-.77-11.44,4.5C17,31.76,11.63,48.29,11.84,65.06c.09,7.3,2.71,12.79,7.38,15.45,4.71,2.69,10.84,2.13,17.27-1.56,6.64-3.81,13.51-9.04,14.12-18.92,.11-1.74-.14-2.86-.79-3.52-.64-.66-1.78-.95-3.47-.88l-1.98,.07c-8.91,.32-18.13,.64-27.01,2.71-.17,.04-.35,.1-.54,.17-.78,.27-1.95,.67-2.68-.51-.65-1.06-.07-2.19,.4-3.09l.09-.18c1.51-3,4.36-3.69,6.9-4.11l3.6-.59c13.93-2.31,28.33-4.69,42.83-2.52,.87,.13,1.38-.08,2.1-.86,1.82-1.97,4.12-2.27,6.47-.82,2,1.23,1.61,2.98,1.26,4.52-.06,.28-.13,.57-.18,.85-.28,1.55-.57,3.1-.87,4.65-1.25,6.54-2.54,13.31-2.3,20.12l.02,.45c.04,1.13,.07,2.29,.3,3.38,.34,1.65,1.09,1.67,1.33,1.68,.72,.07,1.03-.53,1.4-1.62,.48-1.43,.98-2.87,1.49-4.3,2.45-6.98,4.98-14.2,5.12-21.71,.29-14.99,3.7-29.64,7-43.8l.88-3.8c.66-2.85,1.61-5.66,5.19-5.92,3.32-.24,6.07,1.37,7.76,4.52,1.78,3.34,2.45,7.2,2.03,11.8-1.77,19.38-6.37,34.44-14.47,47.38-2.96,4.72-.91,14.65,3.77,18.32,.84,.65,1.54,.92,2.09,.81,.81-.17,1.4-1.19,2.03-2.41,3.5-6.72,5.31-14,6.87-20.87,1.21-5.36,2.58-11.44,5.37-16.98,3.31-6.57,5.85-7.55,12.59-4.57,.39-2.91,.79-5.81,1.19-8.7,1.1-7.98,2.23-16.24,3.17-24.35,.21-1.8,.58-3.6,1.85-4.58,.89-.68,2.13-.9,3.79-.65,1.5,.22,2.57,.79,3.19,1.69,.94,1.37,.68,3.25,.31,4.91-4.49,20.02-6.76,40.71-8.96,60.72l-.28,2.56c-.42,3.77-.84,7.66,.84,11.53,1.4-1.04,1.87-2.62,2.33-4.14,.11-.38,.23-.75,.35-1.11,2.86-8.31,5.24-16.73,7.05-25.03,.33-1.51,.67-2.97,1.24-4.34,1.3-3.12,3.08-7.41,8.4-6.09,4.39,1.08,6.56,4.07,6.42,8.88-.28,9.98-4.36,18.71-8.74,26.66-1.2,2.17-1.49,3.64,.22,5.61,1.2,1.38,2.2,2,3.06,1.92,.84-.08,1.68-.87,2.55-2.4,3.89-6.82,5.98-14.45,8-21.83l.68-2.48c1.46-5.26,2.97-10.7,.27-16.05-.12-.24-.14-.51-.15-.69-.01-.4-.03-.8-.06-1.2-.15-2.82-.31-5.73,2.4-7.89,1.24-.99,3.08-1.03,4.38-.09,2.8,2.03,2.39,5.15,2.07,7.65l-.07,.56c-.42,3.39,.7,5.38,3.85,6.85,4.71,2.2,6.86,6.12,6.22,11.35-.65,5.29-1.39,11.29-1.75,17.13-.03,.55-.12,1.16-.2,1.8-.38,2.81-.51,4.83,1.23,5.24,1.9,.44,2.46-1.25,3.1-3.88,.17-.7,.33-1.37,.54-1.94,2.77-7.41,5.04-15.01,6.74-22.58h0c.53-2.36,1.17-3.49,2.14-3.77,.99-.29,2.14,.34,3.96,2.16l.15,.15v4.16c-1.25,9.12-3.93,18-7.98,26.46-.14,.3-.28,.6-.42,.91-1.52,3.28-3.23,6.99-8.33,6.62-4.39-.33-7.45-3.75-8.62-9.64-1.21-6.11-.93-12.35-.66-18.38,.04-.96,.08-1.92,.12-2.88,.02-.39,.07-.79,.12-1.19,.14-1.04,.28-2.02-.33-3.05-.71,.8-.9,1.8-1.1,2.86-.08,.44-.16,.87-.28,1.28-.48,1.72-.94,3.46-1.39,5.19-1.6,6.15-3.26,12.5-6.42,18.27-3.47,6.31-7.8,8.8-14.06,8.08-4.51-.53-6.5-3.79-8.42-6.95-.13-.21-.25-.42-.38-.63-3.89,4.26-6.23,6.29-8.6,6.29h-.02c-2.09-.01-3.98-1.62-6.65-4.6-.51,.51-1,1.06-1.48,1.6-1.97,2.21-4,4.48-7.79,4.38-4.34-.15-6.23-2.86-7.83-5.75-.79,2.98-3.28,4.44-5.7,5.86l-.56,.33Zm-4.97-1h4.69l.33-.19c2.68-1.57,5.22-3.06,5.45-6.55l.11-1.73,.99,1.84c1.67,3.11,3.26,6.05,7.51,6.2,3.32,.11,5.11-1.91,7.01-4.04,.61-.68,1.24-1.39,1.92-2.02l.38-.34,.34,.38c2.6,2.93,4.46,4.63,6.25,4.65h.02c2.08,0,4.43-2.18,8.31-6.46l.44-.49,.35,.56c.25,.4,.5,.8,.74,1.2,1.88,3.09,3.65,6.01,7.68,6.48,5.87,.68,9.77-1.58,13.06-7.56,3.11-5.65,4.75-11.95,6.33-18.04,.45-1.74,.91-3.48,1.39-5.21,.11-.38,.18-.79,.26-1.19,.24-1.29,.51-2.75,1.84-3.82l.39-.31,.31,.39c1.23,1.52,1.03,2.98,.85,4.26-.05,.37-.1,.73-.11,1.09-.04,.96-.08,1.92-.12,2.88-.27,5.97-.54,12.14,.64,18.14,1.07,5.4,3.8,8.54,7.71,8.83,4.4,.36,5.9-2.91,7.35-6.04,.14-.31,.29-.62,.43-.92,4-8.37,6.65-17.15,7.88-26.1v-3.67c-1.37-1.34-2.29-1.91-2.83-1.76-.55,.16-1.02,1.15-1.44,3.03h0c-1.71,7.61-3.99,15.25-6.78,22.71-.19,.51-.35,1.15-.51,1.82-.54,2.24-1.28,5.32-4.3,4.62-2.77-.64-2.34-3.8-2-6.34,.08-.61,.16-1.2,.19-1.73,.36-5.87,1.1-11.88,1.75-17.19,.59-4.82-1.31-8.29-5.65-10.32-3.57-1.67-4.9-4.03-4.42-7.88l.07-.56c.32-2.48,.65-5.04-1.66-6.72-.93-.68-2.27-.65-3.16,.07-2.31,1.84-2.17,4.38-2.02,7.06,.02,.41,.04,.81,.06,1.21,0,.17,.03,.25,.04,.27,2.87,5.69,1.31,11.32-.2,16.76l-.68,2.48c-2.04,7.44-4.15,15.12-8.1,22.06-1.04,1.83-2.13,2.78-3.32,2.9-1.21,.11-2.49-.62-3.92-2.26-2.07-2.38-1.66-4.34-.34-6.74,4.32-7.84,8.35-16.44,8.62-26.21,.12-4.34-1.73-6.92-5.66-7.88-4.16-1.02-5.68,1.76-7.23,5.51-.54,1.29-.87,2.71-1.19,4.17-1.82,8.34-4.21,16.8-7.09,25.14-.12,.35-.23,.71-.34,1.08-.54,1.78-1.15,3.81-3.25,5.02l-.47,.27-.23-.48c-2.08-4.3-1.62-8.51-1.17-12.59l.28-2.56c2.2-20.04,4.48-40.76,8.97-60.83,.33-1.45,.56-3.08-.16-4.13-.46-.67-1.28-1.08-2.51-1.26-1.38-.2-2.37-.05-3.03,.46-.79,.61-1.21,1.74-1.47,3.9-.94,8.12-2.08,16.38-3.18,24.37-.43,3.11-.86,6.23-1.28,9.37l-.09,.67-.61-.28c-6.73-3.1-8.73-2.45-11.89,3.83-2.73,5.42-4.09,11.44-5.29,16.75-1.57,6.94-3.4,14.28-6.95,21.11-.61,1.17-1.37,2.63-2.71,2.92-.87,.19-1.82-.14-2.91-1-5.01-3.92-7.17-14.56-4-19.63,8.02-12.81,12.57-27.72,14.32-46.94,.4-4.4-.22-8.07-1.91-11.24-1.49-2.78-3.9-4.19-6.8-3.99-2.92,.21-3.67,2.46-4.29,5.15l-.88,3.8c-3.29,14.12-6.69,28.71-6.98,43.59-.15,7.67-2.7,14.97-5.17,22.02-.5,1.43-1,2.86-1.48,4.29-.29,.88-.79,2.38-2.38,2.3-.81-.02-1.87-.47-2.28-2.48-.24-1.17-.28-2.38-.32-3.55v-.45c-.25-6.93,1.05-13.75,2.31-20.34,.29-1.55,.59-3.09,.87-4.64,.05-.3,.12-.6,.19-.9,.38-1.65,.52-2.63-.8-3.44-1.93-1.18-3.73-.96-5.21,.65-.79,.85-1.59,1.38-2.98,1.17-14.35-2.15-28.67,.23-42.52,2.52l-3.6,.59c-2.94,.48-4.99,1.24-6.17,3.57l-.09,.19c-.47,.93-.76,1.58-.43,2.12,.26,.43,.59,.4,1.5,.09,.22-.08,.44-.15,.64-.2,8.97-2.09,18.24-2.42,27.2-2.74l1.98-.07c2.02-.08,3.37,.3,4.23,1.19,.86,.88,1.2,2.24,1.07,4.28-.63,10.35-7.74,15.78-14.62,19.72-6.75,3.88-13.24,4.43-18.27,1.56-4.99-2.84-7.78-8.64-7.88-16.31-.21-16.98,5.21-33.69,16.57-51.1,3.71-5.69,7.26-7.06,12.65-4.88,7.28,2.94,9.08,5.94,8.05,13.36-.59,4.27-1.02,8.43,.23,12.49,.84,2.72,2.11,3.9,4.26,3.95,2.18,.05,3.32-1.17,3.88-4.1,3.25-16.95,1.82-24.93-15.44-30.45-.47-.15-.93-.3-1.4-.46-.63-.21-1.26-.42-1.89-.62-7.25-2.22-12.71-.63-16.69,4.87C8.02,26.16,1.97,45.46,3.05,65.52c.78,14.43,9.68,22.67,24.44,22.67,.14,0,.27,0,.41,0,14.12-.14,27.46-11.82,29.75-26.03,.07-.45,.13-.91,.2-1.36,.49-3.62,1-7.36,6.97-7.85,.67-.05,1.24-.11,1.74-.16,1.68-.17,2.52-.26,3.06,.26,.57,.55,.52,1.49,.39,3.54l-.07,1.19c-.12,2.19-.34,4.42-.55,6.57-.56,5.7-1.14,11.59,.14,17.36,.89,4.01,2.73,6.03,5.8,6.37,3.5,.37,5.16-2.17,6.42-4.98,.67-1.5,1.3-3.04,2.02-4.83,.36-.88,.74-1.82,1.17-2.86l.6-1.45,.35,1.53c1.71,7.42,4.42,11.82,9.06,14.68Zm18.53-6.04l-.15-.5c-2.14-7.14-1.16-14.16-.07-19.48l.07-.33c1.15-5.6,2.34-11.4,5.29-16.57,.46-.81,1.55-2.7,3.59-2.31,1.73,.33,2.48,2.03,2.45,3.56-.19,10.16-1.4,23.29-9.15,34.77h0c-.19,.29-.5,.37-.89,.47-.18,.05-.39,.11-.65,.2l-.5,.18Zm8.19-38.23c-.79,0-1.45,.57-2.18,1.86-2.87,5.03-4.05,10.74-5.18,16.27l-.07,.33c-1.04,5.08-1.98,11.74-.09,18.5,.08-.02,.15-.04,.22-.06,.13-.03,.28-.08,.35-.11,7.58-11.26,8.77-24.18,8.95-34.19,.02-.83-.31-2.3-1.64-2.56-.12-.02-.24-.04-.35-.04Zm23.81,23.25l-.17-1.99c-.61-7.28,1.65-13.82,3.94-19.26l.78-1.84,.18,1.99c.68,7.4-1.75,14.18-3.94,19.27l-.79,1.83Zm3.85-18.78c-1.68,4.29-3.14,9.18-3.12,14.49,1.64-4.12,3.17-9.11,3.12-14.49Zm-59.3,4.54l.3-2.77c1.39-12.94,4.05-25.57,8.37-39.73l.5-1.63,.46,1.64c2.37,8.43-1.23,25.63-8.38,40l-1.24,2.5Zm9.06-40.37c-3.65,12.28-6.04,23.43-7.43,34.72,5.72-12.54,8.72-26.58,7.43-34.72Z" style="fill: #333;"/>
    </g>
  </g>
</svg>