<?xml version="1.0" encoding="UTF-8"?>
<svg id="Layer_1" data-name="Layer 1" xmlns="http://www.w3.org/2000/svg" viewBox="0 0 600.01 599.67">
  <g>
    <path d="M410.33,294.5c-10.23-8.75-21.88-16.56-34.1-22.1-20.29-9.21-41.65-16.04-62.4-24.27-7.79-3.09-15.61-6.22-23.25-9.68l146.28,151.88c1.05-4.63,1.88-9.44,2.43-14.47,3.49-31.53-4.06-60.04-28.96-81.35Z"/>
    <path d="M216.24,291.33c16.87,12.45,35.49,21.29,54.67,29.05l-97.94-101.68c2.44,28.21,17.4,53.55,43.27,72.64Z"/>
    <path d="M335.3,387.21c-3.84,4.39-9.04,7.27-15.07,9.01-18.82,5.4-36.99,3.1-54.63-5.28-16.2-7.7-29.42-19.39-42.89-30.83-7.83-6.66-11.9-6.48-19.42,.57-13.66,12.82-27.22,25.75-40.69,38.77-6.93,6.69-6.8,10.57-.31,17.94,26.21,29.73,58.23,50.09,96.73,59.9,4.04,1.03,5.37,3.01,5.26,7.13-.26,10-.24,20.02,.02,30.02,.2,7.56,2.74,9.84,10.24,9.93,7.67,.09,15.33,.02,23,.02,7.88,0,15.76,.06,23.64-.01,8.28-.08,11.1-2.86,11.19-11.15,.1-9.16,.19-18.32-.04-27.47-.11-4.43,.69-6.77,5.87-7.67,7.5-1.3,14.97-3.47,22.07-6.25,13.9-5.44,26.34-12.12,37.04-20.24l-62-64.38Z"/>
    <path d="M266.78,213.73c0-1.2,.1-2.44,.28-3.7,1.42-9.79,7.85-15.32,16.71-18.24,12.86-4.24,25.85-4.79,38.92-.65,15.17,4.8,27.57,14,39.43,24.2,10.42,8.96,14.29,8.69,23.57-1.16,10.66-11.31,21.26-22.68,31.91-33.99,11.19-11.88,11.11-16.87-.56-28.17-.61-.59-1.23-1.17-1.88-1.73-22.42-19.58-48.01-32.92-77.28-38.75-4.2-.84-5.73-2.42-5.58-6.66,.27-7.87,.09-15.75,.07-23.63-.03-10.04-4.15-14.23-14.36-14.3-13.63-.09-27.26-.08-40.89,0-9.8,.05-12.83,3.14-12.94,13.17-.1,8.73-.21,17.47,.06,26.19,.12,4.03-1.56,5.61-5.25,6.49-5.99,1.43-12,2.97-17.78,5.08-16.49,6.03-30.9,14.25-42.23,25.51l67.77,70.37Z"/>
  </g>
  <path d="M600,289.42c.36,81.48-22.15,146.85-68.46,204.24-9.84,12.2-20.73,23.38-32.19,33.57-13.5,12.02-29.16,21.87-44.73,31.27-38.07,22.99-79.62,36.33-123.89,40.01-77.95,6.47-148.55-13.89-210.81-61.27-55.73-42.41-93.2-97.81-109.93-165.8C-14.48,271.94,5.92,181.67,71.88,103,116.04,50.34,173.11,17.74,240.63,5.48c93.31-16.95,177.29,5.54,250.35,65.83,54.14,44.68,88.01,102.38,102.47,171.06,3.79,18.01,5.14,36.54,6.56,47.05ZM107.72,130.49c-84.53,93.36-89.32,253.83,21.38,355.81,105.34,97.04,251.15,81.38,330.44,13.76-117.19-123.1-234.38-246.2-351.82-369.57ZM496.8,464.26c82.76-97.3,80.67-255.3-28.02-352.75C360.53,14.45,216.08,34.98,141.15,99.31c116.27,123.75,233.74,246.33,355.65,364.95Z"/>
</svg>