<?xml version="1.0" encoding="UTF-8"?>
<svg id="Layer_1" data-name="Layer 1" xmlns="http://www.w3.org/2000/svg" viewBox="0 0 345.89 258.71">
  <path d="M115.03,16.86c14.37-9.07,28.94-14.52,44.71-16.18,56.31-5.94,104.18,27.42,118.28,82.31,.83,3.25,2.52,4.05,5.46,4.46,37.82,5.25,64.6,37.54,62.27,75.62-1.3,21.23-10.78,38.54-27.35,51.91-.88,.71-1.9,1.25-2.56,1.68-6.87-6.89-13.55-13.59-20.5-20.55,.73-.54,1.71-1.31,2.74-2.03,15.84-11.07,22.57-29.86,17.15-47.9-5.5-18.3-21.62-30.45-40.98-30.82-4.83-.09-9.67,0-14.5-.03-8.7-.05-7.6,.75-7.6-7.35-.01-17.23-5.05-32.82-15.17-46.71-22.11-30.35-61.85-40.9-96.35-25.45-3.56,1.59-5.48,1.17-8.03-1.55-5.47-5.81-11.32-11.26-17.57-17.41Z"/>
  <path d="M61.27,1.28c-5.4,5.39-11.27,11.25-17.64,17.61,12.51,12.56,25.25,25.36,38.37,38.53-2.45,.39-4.36,.75-6.29,.99C33.23,63.65,.62,99.9,0,142.55c-.69,48.5,37.92,87.96,86.42,88.07,54.65,.12,109.3,.06,163.94-.04,3.62,0,6.19,.96,8.72,3.59,8.18,8.51,16.62,16.76,24.4,24.56,6.29-6.26,12.24-12.2,18.1-18.04C221.61,161,141.28,80.98,61.27,1.28ZM220.75,201.69c-44.66,.01-89.32,.09-133.97-.02-33.57-.08-59.21-27.14-57.8-60.71,1.23-29.22,25.84-53.59,55.06-54.39,7.99-.22,16-.21,23.99,.02,1.92,.06,4.29,.94,5.63,2.27,36.95,36.81,73.79,73.73,110.64,110.64,.35,.35,.6,.78,1.48,1.95-2.17,.11-3.6,.25-5.03,.25Z"/>
</svg>